<?xml version="1.0" encoding="UTF-8"?>
<!DOCTYPE svg PUBLIC "-//W3C//DTD SVG 1.1//EN" "http://www.w3.org/Graphics/SVG/1.1/DTD/svg11.dtd">
<!-- Creator: CorelDRAW -->
<svg xmlns="http://www.w3.org/2000/svg" xml:space="preserve" width="132.292mm" height="131.939mm" version="1.1" style="shape-rendering:geometricPrecision; text-rendering:geometricPrecision; image-rendering:optimizeQuality; fill-rule:evenodd; clip-rule:evenodd"
viewBox="0 0 13229.16 13193.88"
 xmlns:xlink="http://www.w3.org/1999/xlink"
 xmlns:xodm="http://www.corel.com/coreldraw/odm/2003">
 <defs>
  <style type="text/css">
   <![CDATA[
    .fil0 {fill:#9102D4;fill-rule:nonzero}
    .fil1 {fill:#D9D9D9;fill-rule:nonzero}
   ]]>
  </style>
 </defs>
 <g id="Camada_x0020_1">
  <metadata id="CorelCorpID_0Corel-Layer"/>
  <path class="fil0" d="M2506.57 7009.22c-520.21,0 -942.14,-423.58 -942.14,-945.84 0,-522.26 421.93,-945.85 942.14,-945.85 520.22,-0.01 942.14,423.57 942.14,945.85 0,173.15 -46.83,335.6 -127.5,475.25 -246.67,-88.44 -493.33,-176.88 -739.99,-264.86 87.63,223.89 175.72,447.79 263.82,672.15 -105.25,40.49 -219.31,63.3 -338.47,63.3z"/>
  <path class="fil1" d="M3757.97 7437.46c8.8,-9.31 8.34,-24.21 -0.93,-33.05l-315.75 -300.7c-9.27,-8.84 -24.11,-8.38 -32.92,0.93l-228.11 241.58 -447.43 -1138.55 1138.73 407.76 -228.12 230.87c-4.63,4.66 -6.95,10.71 -6.49,16.76 0,6.52 2.78,12.1 7.42,16.76l315.28 290.92c9.28,8.84 24.11,7.91 32.92,-1.4 3.65,-3.85 5.63,-8.67 6.03,-13.61l0 -3.87c-0.46,-5.72 -2.99,-11.33 -7.42,-15.57l-297.66 -274.63 236.92 -239.71c5.57,-5.59 7.89,-13.97 6.03,-21.42 -1.85,-7.91 -7.42,-13.96 -14.84,-16.75l-1221.25 -437.55c-8.35,-3.26 -18.08,-0.93 -24.58,5.59 -6.49,6.51 -8.34,16.29 -5.1,24.67l479.42 1220.47c2.78,7.45 9.27,12.57 17.15,14.43 7.89,1.4 15.77,-0.93 21.33,-6.98l237.39 -251.36 299.06 284.41c4.63,4.18 10.2,6.51 15.76,6.51 0.71,0.1 1.41,0.16 2.11,0.19l1.19 0c5.22,-0.14 10.02,-2.46 13.86,-6.7zm-1234.71 -1405.74c8.81,-9.3 8.81,-23.73 -0.46,-33.04l-322.24 -315.59c-9.27,-8.85 -23.64,-8.85 -32.92,0.46 -8.81,9.31 -8.81,23.74 0.47,33.05l322.23 315.59c4.64,4.19 10.2,6.52 16.23,6.52 6.03,0 12.06,-2.33 16.69,-6.99zm-106.17 283.01c0,-13.03 -10.2,-23.27 -23.19,-23.27l-419.14 0c-12.98,0 -23.18,10.24 -23.18,23.27 0,13.04 10.2,23.28 23.18,23.28l419.14 0c12.52,0 23.19,-10.24 23.19,-23.28zm363.5 -389.13c-12.98,0 -23.18,-10.24 -23.18,-23.28l0 -404.52c0,-13.02 10.2,-23.27 23.18,-23.27 12.98,0 23.18,10.25 23.18,23.27l0 404.52c0,12.57 -10.66,23.28 -23.18,23.28z"/>
 </g>
</svg>
